<svg width="176" height="50" viewBox="0 0 176 50" fill="none" xmlns="http://www.w3.org/2000/svg">
<g clip-path="url(#clip0_4152_204)">
<path fill-rule="evenodd" clip-rule="evenodd" d="M50.0343 22.7348C39.986 19.4963 26.808 6.96475 25.3735 5.58068C25.819 5.17734 27.0584 3.94945 26.7419 3.03165C26.4193 2.09662 23.4734 0 22.4819 0C22.2539 0 22.1393 0.0968586 22.0832 0.178057C21.645 0.813259 21.519 4.65264 21.4971 5.46454C20.8847 5.79718 19.799 7.47635 19.5947 8.46351C19.3912 9.44634 11.0112 17.1807 6.67633 20.1582C2.4732 23.0452 0.0990198 24.5778 0.075586 24.593C0.0173104 24.6306 -0.0113409 24.7006 0.0041668 24.7681C0.0244284 24.8563 0.11974 25.0045 0.530381 25.0045C1.32278 25.0045 3.39114 24.476 8.7441 21.9583C15.3384 18.8568 20.9867 11.5867 23.3987 8.48222C23.8636 7.88378 24.2684 7.36271 24.3949 7.25389C24.6745 7.31567 25.671 8.48256 26.4572 9.57491C26.9391 10.1651 38.3072 24.0303 42.2587 24.0303C46.9539 24.0303 50.0042 23.0581 50.0345 23.0483C50.1027 23.0262 50.1489 22.9629 50.1486 22.8914C50.1484 22.82 50.1022 22.7567 50.0343 22.7348ZM9.20853 31.4181C9.24847 31.365 9.24724 31.2872 9.16903 31.2738C9.21349 31.3406 9.1509 31.3787 9.20853 31.4181ZM9.19617 31.1109C9.1448 31.1169 9.192 31.1377 9.23071 31.1419C9.24744 30.3695 9.2461 29.675 9.26534 28.9235C9.07574 29.5276 9.18576 30.321 9.19617 31.1109ZM9.20115 32.0186C9.19346 32.1058 9.18022 32.2552 9.24631 32.277C9.22573 32.2044 9.27178 32.0089 9.20115 32.0186ZM9.21599 31.596C9.2299 31.6084 9.25028 31.5775 9.24882 31.5785C9.37649 31.499 8.97264 31.381 9.21599 31.596ZM40.9571 47.5089C40.8564 47.5032 40.6284 47.4216 40.6997 47.5089H40.8167C40.5598 47.6023 40.1324 47.5043 40.0441 47.4423C40.0256 47.4406 40.0072 47.4393 39.9887 47.4375C39.9943 47.3163 39.9993 47.1953 40.0066 47.0734C40.0272 46.7364 40.0697 46.3954 40.1686 46.1158C40.3079 45.721 40.2069 45.2748 40.2058 44.854C40.201 43.2703 40.1716 41.8394 40.1487 40.3742C40.1372 39.6419 40.1265 38.9015 40.1206 38.1308L40.1075 35.6923C40.1001 34.148 40.1503 32.6169 40.2581 31.1706C40.3092 31.1523 40.4779 31.1013 40.4068 31.0818C40.4061 31.1057 40.3418 31.0977 40.3325 31.1172C40.237 30.0448 40.3441 29.0518 40.4828 28.1143C40.4804 27.7239 40.3461 27.2993 40.3654 26.8371C40.3769 26.5588 40.3396 26.1954 40.3977 25.9113C40.4269 25.7655 40.5537 25.6674 40.5064 25.53C40.4294 25.3078 40.338 25.0504 40.3588 24.8227C40.2058 24.7214 40.2282 24.5514 39.9932 24.4709C39.6197 24.5451 39.5353 24.8046 39.1959 24.9066C39.1366 25.5767 38.9148 25.9605 38.905 26.5229C38.6488 26.7563 38.6866 27.0233 38.6341 27.3174C38.5917 27.5543 38.594 27.8017 38.525 28.0495C38.3939 28.5178 38.2427 28.9805 38.2191 29.4388C38.1748 30.2918 38.1148 31.1614 38.0331 32.0269C37.8984 33.4565 38.0256 34.9027 37.8916 36.1031C37.9439 36.5472 38.0319 37.063 37.8588 37.5567C37.9663 38.5984 37.95 39.64 38.0326 40.7274C38.1256 41.9533 38.2046 43.1084 38.3377 44.2164C38.3581 44.388 38.2814 44.5616 38.316 44.728C38.4091 45.1757 38.5376 45.673 38.5784 46.1043C38.6884 46.0352 38.5048 45.8316 38.6803 45.7924C38.6556 46.3834 38.7685 46.804 38.838 47.3434C36.8145 47.1955 34.8066 47.1415 32.7392 47.0423C31.3235 46.9741 30.0286 46.93 28.712 46.909C26.3442 46.8704 23.9603 46.9707 21.5944 46.909C20.8586 46.8895 20.0795 46.8401 19.3234 46.9421C18.6016 46.7387 17.7328 46.8748 16.9351 46.8753C14.711 46.8782 11.8776 47.0072 9.70041 46.409C9.57342 46.374 9.4393 46.3195 9.30279 46.27C9.4616 45.3724 9.5457 44.4396 9.58328 43.5091C9.6394 42.1314 9.59923 40.7592 9.58054 39.4929C9.54524 37.0476 9.43443 34.6146 9.21508 32.3272C9.15521 32.4928 9.29069 32.6716 9.14004 32.8678C9.12022 32.7313 9.10133 32.8924 9.0384 32.84L9.0375 32.8238C9.04065 32.7577 9.09341 32.5971 9.08921 32.4955C9.08502 32.4079 8.98033 32.3177 8.97602 32.2242C8.95623 31.7943 9.11128 31.3366 8.95555 30.9582C9.05537 30.8284 8.97185 30.7109 8.97456 30.5692C8.98317 30.1537 8.94582 29.7452 8.90428 29.2979C8.86205 28.8401 8.97874 28.5004 8.88968 28.0676C8.8607 27.9264 8.72929 27.7667 8.65753 27.6215C8.53652 27.3773 8.46408 26.96 7.80071 26.9469C7.67201 26.9895 7.6254 27.0753 7.49501 27.1184C7.25924 27.996 7.18409 28.8502 7.16281 29.7124C7.14197 30.5753 7.17649 31.4493 7.17491 32.3878C7.17255 33.8169 7.2881 35.321 7.35623 36.7648C7.44633 38.6978 7.55567 40.2304 7.47531 42.1066C7.41872 43.3984 7.3782 44.6974 7.21135 45.9828C7.04464 47.2651 6.75048 48.5422 6.19033 49.7327C6.31052 49.7915 6.36995 49.8034 6.34357 49.8943C6.51278 49.9509 6.48912 49.7579 6.65811 49.759L6.54039 49.945C6.74232 49.9245 6.78625 49.8065 6.92737 49.7513C6.98748 49.7872 6.90541 49.7779 6.92025 49.8318C7.13168 49.7592 7.22097 49.6784 7.43717 49.6835C7.50451 49.4812 7.75328 49.3841 7.81385 49.1758C8.17287 49.0784 8.21044 48.8375 8.32351 48.6039C8.42741 48.3889 8.60307 48.1835 8.69635 47.965C8.70291 47.9495 8.70833 47.9346 8.7148 47.919C8.89148 48.0471 9.13494 48.1149 9.3492 48.209C9.60217 48.3196 9.85989 48.4931 10.075 48.5758C11.0441 48.9473 12.1853 48.955 13.2124 49.0088C13.6182 49.0302 14.1782 49.0029 14.547 49.1089C16.1867 49.0552 17.8099 48.9546 19.3702 48.9755C20.5435 48.9912 22.0504 48.9575 23.5141 49.0422C23.8256 49.0601 24.1389 49.0064 24.4508 49.0088C26.152 49.0215 27.948 49.0585 29.4611 49.0422H30.2572C30.5366 49.0416 30.8204 49.0054 31.1002 49.0088C32.1049 49.0206 33.2075 49.1802 34.144 49.0088C34.3715 49.0985 34.5773 49.1136 34.8229 49.1089C36.561 49.0757 38.3688 49.0856 40.0441 48.9422C40.2413 48.8705 40.6311 48.5933 40.9338 48.4422C41.2147 48.302 41.4352 48.33 41.4488 47.9418C41.4542 47.7863 41.399 47.6595 41.3317 47.5422C41.2593 47.481 41.0956 47.5166 40.9571 47.5089Z" fill="white"/>
<path d="M19.8601 37.7337C20.0248 37.7658 20.0203 37.7726 20.1323 37.802L20.2556 37.8203C20.2987 37.8277 20.3743 37.8316 20.3201 37.8084L20.1356 37.7817L20.0536 37.7062C19.932 37.7245 19.7886 37.6265 19.6002 37.6161C19.5694 37.5847 19.5594 37.547 19.4604 37.5401C19.4752 37.6507 19.7372 37.6689 19.8601 37.7337ZM19.8913 37.5728C19.9658 37.6085 20.0708 37.6311 20.188 37.6449C20.2103 37.6361 20.2415 37.635 20.2764 37.6374C20.2719 37.6274 20.2675 37.6177 20.2633 37.6085C20.2465 37.6075 20.2298 37.6066 20.2129 37.6055C20.2137 37.6075 20.2144 37.6098 20.2152 37.6119C20.2143 37.6099 20.2132 37.6075 20.2123 37.6054C20.2063 37.605 20.2003 37.6048 20.1942 37.6044C20.1067 37.6075 20.1211 37.5638 20.0481 37.5596C20.0388 37.5824 19.9968 37.5736 19.955 37.5638L19.8357 37.5409C19.7865 37.5377 19.8321 37.57 19.8913 37.5728ZM20.4333 37.4113C20.4226 37.3821 20.4109 37.3461 20.3984 37.3096C20.393 37.3091 20.3874 37.309 20.382 37.3087C20.3893 37.3312 20.3976 37.3513 20.4035 37.3592C20.4055 37.3734 20.4096 37.3905 20.4147 37.4084C20.4211 37.4094 20.4274 37.4104 20.4333 37.4113ZM20.6015 37.7821C20.6074 37.7824 20.6137 37.7832 20.6195 37.7834C20.5928 37.7302 20.569 37.6756 20.545 37.6212C20.5403 37.6212 20.5356 37.621 20.5308 37.6209C20.5396 37.6384 20.5477 37.6553 20.5523 37.6677C20.541 37.6607 20.5294 37.6427 20.5182 37.6207C20.5102 37.6204 20.5022 37.62 20.4943 37.6198C20.5008 37.6355 20.5075 37.6507 20.5149 37.667C20.5175 37.6671 20.5204 37.6675 20.523 37.6675C20.5259 37.6767 20.5262 37.684 20.5256 37.6903C20.5372 37.7148 20.551 37.7432 20.5688 37.7795C20.5776 37.7804 20.5863 37.7809 20.5949 37.7815L20.5679 37.7273C20.5749 37.7213 20.5882 37.7534 20.6015 37.7821ZM21.2079 38.5473C21.2227 38.5687 21.2394 38.5906 21.2565 38.6128L21.2648 38.6127L21.2842 38.6116C21.2534 38.5798 21.224 38.5495 21.2079 38.5473ZM20.1581 37.4527C20.1676 37.4545 20.1776 37.456 20.1866 37.4579C20.1908 37.4557 20.1946 37.4533 20.1988 37.451C20.187 37.4223 20.1746 37.3947 20.156 37.3605C20.1467 37.3367 20.1382 37.3097 20.1294 37.2847C20.1198 37.2835 20.1103 37.2824 20.1008 37.2813C20.1187 37.3391 20.1381 37.3957 20.1581 37.4527ZM19.9414 36.5446C19.9629 36.7483 20.0119 36.9737 20.0766 37.1981C20.0844 37.1995 20.0924 37.2004 20.1002 37.2018C20.0345 37.0009 19.9787 36.771 19.9414 36.5446ZM19.8225 37.4546C19.7162 37.4428 19.4214 37.2864 19.4905 37.4209C19.501 37.4072 19.5012 37.382 19.5297 37.3884C19.5303 37.4186 19.5882 37.4266 19.6078 37.4494C19.6152 37.3992 19.9093 37.5236 19.8225 37.4546ZM20.2893 37.4074C20.2961 37.4054 20.302 37.4026 20.3097 37.4015C20.2972 37.3678 20.2839 37.3388 20.266 37.3219C20.2613 37.3396 20.2775 37.3578 20.2868 37.3804C20.2755 37.3837 20.2813 37.3924 20.2893 37.4074ZM20.1467 37.4507C20.1251 37.3956 20.1038 37.3384 20.0839 37.2787C20.0611 37.2758 20.0381 37.2718 20.0152 37.2687C20.0223 37.2908 20.0278 37.311 20.0355 37.3337C20.0496 37.3698 20.045 37.3775 20.0369 37.3561C20.0272 37.3267 20.0183 37.2972 20.0088 37.2677C19.8035 37.2382 19.595 37.1971 19.3814 37.1379C19.2729 37.1147 19.2361 37.1462 19.0608 37.0846C19.0161 37.1186 18.9124 37.0733 18.8668 37.1057C19.2009 37.2623 19.4303 37.2754 19.7562 37.3359C19.8063 37.4108 19.9969 37.4248 20.1467 37.4507ZM20.1231 36.954C20.0636 36.8862 20.1637 37.1521 20.1115 37.1087C20.1219 37.143 20.133 37.1751 20.1435 37.2085C20.1614 37.2115 20.1794 37.214 20.1973 37.2168C20.1711 37.1436 20.1465 37.0686 20.1394 37.0142C20.1321 36.9909 20.1245 37 20.117 36.9986C20.1105 36.9694 20.1319 36.9872 20.1231 36.954ZM19.3554 37.3433C19.3443 37.3652 19.345 37.4008 19.3099 37.3944C19.2259 37.3441 19.1849 37.3803 19.1472 37.3049C19.0984 37.4456 19.3235 37.5293 19.4459 37.4732C19.2986 37.4811 19.4317 37.3007 19.3554 37.3433ZM21.1814 38.5702C21.0674 38.4305 20.9925 38.3235 20.9103 38.2002C20.891 38.1977 20.9465 38.2908 20.9581 38.2885C20.9747 38.323 21.008 38.3689 21.0327 38.4075C21.0624 38.4327 21.1141 38.5173 21.1994 38.6076C21.1853 38.6297 21.1381 38.5456 21.1161 38.5206C21.0925 38.5161 21.082 38.4674 21.0405 38.4269C21.0112 38.4279 21.1067 38.5021 21.0856 38.5198C20.954 38.3509 20.8286 38.1612 20.7164 37.9617C20.6963 37.9614 20.6764 37.9609 20.6565 37.9604C20.7388 38.1182 20.8463 38.2839 20.9263 38.412C20.9738 38.4669 20.9575 38.4517 21.0061 38.5056C21.0157 38.5302 21.0416 38.5674 21.0756 38.6075C21.077 38.6093 21.0788 38.612 21.0805 38.6145C21.1079 38.6145 21.135 38.6153 21.1632 38.6149L21.2429 38.6131C21.2151 38.5831 21.2181 38.6187 21.1814 38.5702ZM20.3663 37.243C20.3693 37.2433 20.3723 37.244 20.3753 37.2443C20.3726 37.237 20.3699 37.2294 20.3671 37.2225C20.3651 37.2262 20.3652 37.2338 20.3663 37.243ZM20.1693 37.2886C20.186 37.3394 20.2036 37.3891 20.2214 37.438C20.2352 37.4297 20.2491 37.4214 20.2647 37.4145C20.2541 37.3699 20.235 37.3447 20.2251 37.2943C20.2066 37.2923 20.1879 37.2908 20.1693 37.2886ZM20.3822 37.6154C20.387 37.6271 20.3914 37.6398 20.3959 37.6524C20.4014 37.6532 20.4069 37.654 20.4123 37.6548C20.4074 37.6425 20.4017 37.6294 20.3956 37.6159C20.3912 37.6156 20.3868 37.6155 20.3822 37.6154ZM20.3239 31.0132C20.2987 31.0182 20.2774 31.0223 20.2584 31.0261C20.271 31.024 20.2836 31.0223 20.2959 31.0198L20.3239 31.0135V31.0132ZM22.6881 20.5702C22.6965 20.5027 22.5363 20.4995 22.5127 20.4444C22.5335 20.5102 22.4045 20.4716 22.4256 20.5378C22.5132 20.5472 22.6005 20.5583 22.6881 20.5702ZM20.3657 37.6147C20.3393 37.6134 20.3129 37.6117 20.2865 37.61C20.2904 37.6198 20.2948 37.6293 20.2988 37.639C20.324 37.6416 20.3509 37.6455 20.3783 37.6497C20.3733 37.6382 20.3699 37.6265 20.3657 37.6147ZM18.3993 27.2502C18.3727 27.2674 18.3131 27.2824 18.3043 27.3034L18.2807 27.3598L18.3253 27.34C18.3891 27.312 18.4592 27.2618 18.5822 27.1891C18.7068 27.0991 18.7743 27.0695 18.8624 27.0022C18.8456 26.9749 18.8078 27.018 18.7432 27.0568C18.6056 27.1265 18.582 27.1448 18.3993 27.2502ZM28.7433 24.7055C28.9539 24.6721 29.1716 24.6507 29.4048 24.643C29.4043 24.6424 29.4041 24.6419 29.4036 24.6415C29.3688 24.6606 29.3491 24.4986 29.2835 24.5393C29.3251 24.5969 29.316 24.6142 29.2714 24.5938C29.2323 24.5271 29.2472 24.4877 29.2346 24.4346C29.1782 24.475 29.0845 24.2846 29.0535 24.1903C29.0308 24.202 29.008 24.2106 28.9745 24.1552C28.8386 24.0022 28.7551 23.8472 28.6623 23.7749C28.6342 23.7256 28.6224 23.6832 28.5935 23.6339C28.4658 23.6007 28.4117 23.2917 28.3085 23.3282C28.3372 23.3624 28.3859 23.4033 28.3725 23.4244C28.2655 23.3843 28.2707 23.2661 28.1892 23.1787C28.1493 23.2106 28.0932 23.0928 28.0801 23.0724C28.0629 23.078 28.0511 23.1008 28.0242 23.0757C27.9963 22.993 27.9542 23.0022 27.8994 22.987C27.9128 22.9418 27.8854 22.9149 27.8293 22.8955C27.86 22.8783 27.8279 22.8201 27.7862 22.8296C27.8021 22.8436 27.8073 22.8706 27.7727 22.8448C27.7491 22.7741 27.7274 22.6918 27.6427 22.7051C27.722 22.685 27.5588 22.6133 27.6377 22.5932C27.5456 22.5423 27.4573 22.503 27.3611 22.448C27.3876 22.4201 27.3131 22.4165 27.3011 22.4012C27.2679 22.3589 27.2448 22.216 27.1429 22.2305C27.1791 22.26 27.2122 22.2894 27.1796 22.3088C27.1234 22.2109 27.0965 22.1912 27.0569 22.2183C27.0501 22.1696 26.9754 22.0904 26.9326 22.13C27.0211 22.1769 27.0397 22.2164 26.9899 22.246C26.8337 22.1053 26.6551 22.0472 26.6161 21.9173C26.567 21.9192 26.4235 21.939 26.4113 21.8853C26.467 21.886 26.5996 21.9348 26.4871 21.8356C26.4683 21.8692 26.4391 21.857 26.4113 21.813C26.3895 21.8358 26.383 21.8846 26.3361 21.8632C26.1994 21.8077 26.2573 21.7321 26.1509 21.7305C26.213 21.7318 26.2094 21.6883 26.1154 21.6396C26.0604 21.609 26.069 21.6785 26.019 21.6562C26.0339 21.6236 26.0577 21.6045 26.0925 21.6031C25.9569 21.5234 26.0839 21.4456 25.9142 21.3672C25.8951 21.3975 25.8924 21.4275 25.9101 21.4575C25.7564 21.3553 25.885 21.5481 25.8041 21.4948C25.6812 21.3917 25.913 21.3877 25.7421 21.2793C25.717 21.3377 25.6751 21.373 25.609 21.3739C25.6086 21.3559 25.626 21.337 25.5927 21.3203C25.5692 21.3751 25.4766 21.303 25.4107 21.2574C25.3528 21.2971 25.3274 21.303 25.2989 21.3192C25.2452 21.2935 25.2932 21.2594 25.2117 21.2358C25.111 21.2613 24.9548 21.1746 24.9308 21.1191C24.9055 21.1539 24.8215 21.1201 24.7674 21.1214C24.7597 21.0861 24.7332 21.0534 24.7253 21.0181C24.5442 20.9399 24.3866 20.8984 24.3101 20.9397C24.2155 20.8342 24.0634 20.8923 23.9416 20.8507C23.8139 20.8064 23.7609 20.7449 23.5853 20.7167C23.5502 20.6891 23.5914 20.64 23.4879 20.6313C23.2394 20.6062 22.9607 20.5722 22.8283 20.6527C22.699 20.5465 22.419 20.6194 22.3149 20.5055C22.3081 20.5301 22.2988 20.5526 22.2358 20.5392C21.9928 20.5193 21.8309 20.5208 21.6793 20.5248L21.1848 20.5428C21.0442 20.5016 20.9941 20.5185 20.7707 20.5181C20.7651 20.4936 20.7566 20.4703 20.6928 20.4823C20.5605 20.4975 20.8293 20.5284 20.6971 20.5436C20.6461 20.5407 20.6232 20.5195 20.5456 20.5347C20.529 20.4879 20.4929 20.4541 20.459 20.419C20.3741 20.3766 20.292 20.4541 20.2289 20.4224C20.2116 20.4544 20.285 20.5223 20.203 20.5287L20.1956 20.4676C20.0899 20.4888 19.8723 20.519 19.7805 20.5267C19.7983 20.613 19.9463 20.4707 19.9091 20.6099C19.8532 20.5654 19.7295 20.6582 19.7192 20.6202C19.7093 20.5974 19.7156 20.5617 19.671 20.5661C19.7048 20.6705 19.6149 20.6573 19.6037 20.62C19.5654 20.687 19.4209 20.6751 19.3106 20.6997C19.2455 20.7372 19.1422 20.7644 19.0624 20.7996C18.5641 20.8747 18.0306 21.0807 17.4865 21.3165C17.0297 21.512 16.5776 21.7298 16.3308 21.9495C16.2151 21.9818 16.0594 22.0928 15.9492 22.1242C15.9441 22.1609 15.9043 22.201 15.8486 22.2437C15.7931 22.219 15.6701 22.3362 15.5981 22.3491C15.6305 22.3809 15.6127 22.4197 15.5451 22.4664C15.3643 22.6021 15.3498 22.6046 15.193 22.7491C15.0017 22.8679 14.775 23.0726 14.5559 23.3024C14.3359 23.5318 14.1238 23.7856 13.9376 23.9924C13.7211 24.2767 13.5535 24.5457 13.3946 24.8202C13.2359 25.0952 13.0855 25.3756 12.914 25.6959C12.9316 25.8098 12.8059 26.0264 12.7393 26.1501C12.663 26.4052 12.48 26.839 12.3738 27.0869C12.2414 27.5673 12.1822 27.9506 12.1374 28.3401C12.0949 28.7298 12.0665 29.1272 12.0552 29.6468L12.1198 30.2603C12.1428 30.4644 12.1678 30.6679 12.2003 30.8677C12.2653 31.2672 12.3597 31.6535 12.509 31.9909C12.4985 32.1128 12.6049 32.3126 12.6612 32.4303C12.7856 32.8276 12.9465 33.19 13.1323 33.5466C13.3188 33.9032 13.5299 34.2545 13.7727 34.6299C14.0518 35.0665 14.3193 35.4164 14.6783 35.7333C14.7747 35.8915 14.9182 35.9667 15.0134 36.1309C15.3906 36.4684 15.846 36.8126 16.3174 37.1103C16.7883 37.4099 17.2737 37.662 17.6917 37.8656C17.7366 37.8791 17.7633 37.8665 17.8248 37.9036C18.4839 38.202 19.2495 38.4311 20.0483 38.5563C20.0917 38.5615 20.099 38.5371 20.1525 38.5508C20.4307 38.5825 20.7042 38.6074 20.967 38.6138C20.9779 38.614 20.9886 38.6138 20.9994 38.6139C20.9555 38.5613 20.9116 38.5085 20.8704 38.4539C20.831 38.4097 20.8445 38.4058 20.8134 38.3665C20.7347 38.2687 20.6893 38.1723 20.6312 38.0884C20.5924 38.0178 20.5744 37.9893 20.5554 37.9569C20.5174 37.9549 20.4797 37.952 20.4419 37.9493C20.4522 37.9694 20.4612 37.9896 20.472 38.0099C20.4583 37.9976 20.4428 37.9758 20.4264 37.9482C20.171 37.929 19.9217 37.8911 19.6819 37.823C19.6917 37.7885 19.6884 37.7592 19.6686 37.7364C19.4128 37.6571 19.1681 37.6704 18.9743 37.5518C18.8975 37.5093 18.6819 37.4988 18.7214 37.4239C18.7268 37.3736 18.9985 37.5243 18.9107 37.4453C18.6079 37.3548 18.5657 37.3105 18.3443 37.2792C18.0121 37.1177 17.7523 37.0582 17.5981 36.8997C17.823 37.0001 17.9562 37.0548 18.1247 37.1618C18.1567 37.1221 18.0919 37.0978 18.1393 37.0557C18.0412 37.0198 18.0665 37.0916 18.0283 37.0041C17.9312 37.0153 17.9144 36.967 17.8178 36.9462C17.6106 36.8284 17.4101 36.7234 17.2448 36.647C17.1336 36.5879 17.0122 36.4474 17.0407 36.5651C17.1052 36.6077 17.4173 36.7838 17.5065 36.8725C17.2706 36.7546 16.9275 36.5883 16.7616 36.4234C16.767 36.4206 16.9672 36.5141 16.9354 36.445C16.833 36.4038 16.7358 36.372 16.6614 36.4015C16.6332 36.3125 16.4802 36.3031 16.3887 36.1922C16.339 36.1193 16.3262 36.0766 16.3442 36.0501C16.2048 35.9588 15.9894 35.7989 15.7827 35.6163C15.5753 35.4348 15.3775 35.2305 15.2533 35.0779C15.2797 35.0564 15.3176 35.1369 15.3449 35.1229C15.2972 35.0018 15.1805 34.9154 15.0907 34.8092C15.1045 34.7319 15.0108 34.7165 15.0654 34.6734C15.1591 34.8253 15.2503 34.8675 15.3376 34.8893C15.3299 34.9197 15.4771 35.0408 15.53 35.0859C15.6236 35.1927 15.7199 35.2972 15.819 35.3989C15.8526 35.4237 15.8807 35.4198 15.9193 35.4708C16.0524 35.6685 16.3277 35.8574 16.5094 35.9467C16.4837 35.922 16.4409 35.8947 16.4526 35.8734C16.54 35.932 16.6112 35.9326 16.7018 35.9949C16.7287 36.0648 16.8678 36.1391 16.9537 36.2078C17.0408 36.2009 17.1283 36.3337 17.161 36.2758C17.0059 36.1204 16.8075 35.9903 16.6049 35.8468C16.4025 35.7038 16.1959 35.5471 16.0356 35.3547C15.9959 35.3899 15.9335 35.2994 15.8867 35.2916C15.8523 35.1954 15.726 35.1565 15.6981 35.0588C15.9887 35.3203 16.2635 35.4802 16.5224 35.7445C16.569 35.6806 16.6785 35.8459 16.7441 35.8457C16.7743 35.8699 16.7428 35.8905 16.7648 35.9141C16.83 35.8825 16.8658 35.9808 16.9663 35.989C17.0465 36.0725 17.3155 36.194 17.4836 36.2642C17.4593 36.2434 17.4429 36.1985 17.4808 36.2141C17.7841 36.4025 17.8133 36.472 18.0756 36.5709C18.0854 36.5605 18.0982 36.5557 18.1121 36.5533C18.6728 36.8313 19.2752 37.0372 19.9059 37.1645C19.8567 37.0499 19.8016 36.8037 19.774 36.6384C19.8266 36.8239 19.8399 36.936 19.9093 37.1653C19.9335 37.1701 19.957 37.176 19.9811 37.1805C19.9801 37.177 19.9787 37.1736 19.9777 37.17C19.941 37.0751 19.9076 36.9428 19.8808 36.8159C19.8689 36.7421 19.8555 36.7368 19.845 36.6694C19.8253 36.5638 19.8086 36.4579 19.7953 36.3519C19.7932 36.3148 19.7886 36.2947 19.7838 36.2754L19.7803 36.2608L19.777 36.2434C19.7752 36.2333 19.7736 36.2214 19.773 36.2061L19.7544 36.0158L19.739 35.8242C19.7297 35.7835 19.7326 35.7418 19.7178 35.684C19.7156 35.6261 19.7242 35.5622 19.7167 35.4415C19.7094 35.347 19.715 35.3404 19.6998 35.3012C19.7028 35.2439 19.703 35.1766 19.7067 35.1196C19.7061 35.0574 19.7021 35.0081 19.6931 34.979C19.7003 34.9259 19.6992 34.842 19.7043 34.7782C19.7002 34.5462 19.7158 34.3818 19.7133 34.1769C19.7383 33.7881 19.771 33.4932 19.8233 33.1063C19.8263 33.0396 19.8421 33.0429 19.8513 33.0098C19.8627 32.8235 19.8953 32.6489 19.9142 32.401C19.9219 32.3293 19.9354 32.2936 19.9471 32.2468C19.9579 32.1217 19.9935 31.922 20.0248 31.708C20.0547 31.5028 20.0826 31.2866 20.0935 31.1646C20.1002 31.1847 20.1012 31.2285 20.0915 31.2485C20.1088 31.2465 20.0714 31.3632 20.0989 31.3389C20.095 31.3584 20.0859 31.3497 20.0829 31.3737C20.1065 31.3791 20.0824 31.3858 20.0782 31.4101C20.0766 31.4794 20.0572 31.6417 20.0363 31.7097C20.0402 31.807 19.9967 31.9768 19.9977 32.0565C19.9367 32.4065 19.8784 32.8764 19.8364 33.2671C19.8232 33.3529 19.8266 33.3547 19.816 33.4246C19.8067 33.4738 19.813 33.596 19.7909 33.5821C19.8031 33.6181 19.7925 33.6152 19.7966 33.6624C19.7775 33.7449 19.7847 33.7533 19.7737 33.8203C19.774 33.8681 19.7576 33.9642 19.7699 33.9798C19.7547 34.0099 19.7567 34.0207 19.7587 34.079C19.7436 34.1534 19.748 34.3031 19.7349 34.3778C19.7222 34.8318 19.7244 35.1647 19.7438 35.5211C19.757 35.5745 19.7202 35.5611 19.741 35.5816C19.7457 35.6401 19.7434 35.6507 19.7315 35.6224C19.7311 35.6673 19.7444 35.6504 19.7469 35.6821C19.7375 35.6975 19.7484 35.7187 19.7505 35.7424C19.7539 35.8883 19.7672 36.0234 19.7835 36.1549L19.8108 36.3529L19.8437 36.5607C19.8734 36.7381 19.9159 36.9427 19.9882 37.182C20.0113 37.1865 20.0343 37.1911 20.0576 37.1951C20.0539 37.1835 20.05 37.1719 20.0465 37.1603C19.998 36.9978 19.9647 36.8396 19.9473 36.7365C19.923 36.6639 19.9218 36.5906 19.8939 36.5095L19.8353 35.9742C19.8188 35.8137 19.8051 35.6505 19.8042 35.4378C19.8017 35.3615 19.7744 35.3869 19.7703 35.3189L19.7517 34.6783C19.7577 34.2241 19.7972 33.9338 19.8266 33.5052C19.8455 33.4039 19.8508 33.2252 19.8772 33.1518C19.8766 32.9711 19.9425 32.6342 19.9374 32.5825C19.9412 32.5597 19.9501 32.5673 19.9572 32.5653C19.9436 32.5361 19.9658 32.4938 19.9635 32.4274L19.9874 32.2525C19.9904 32.197 20.0026 32.2034 20.007 32.1565L20.0376 31.9443C20.0398 31.9275 20.0511 31.8988 20.0515 31.8875C20.0525 31.8659 20.0397 31.8669 20.0484 31.8284C20.0564 31.8312 20.0643 31.8339 20.0685 31.8118C20.0709 31.7892 20.0603 31.7941 20.0541 31.7901C20.0667 31.7684 20.0954 31.6913 20.0764 31.6768C20.0841 31.6411 20.0957 31.631 20.1014 31.584C20.1173 31.5095 20.1117 31.4447 20.1243 31.4161C20.1302 31.3835 20.1237 31.3779 20.1209 31.397C20.11 31.3938 20.1385 31.3299 20.1262 31.3057C20.1462 31.2972 20.1414 31.2695 20.1495 31.2546C20.1507 31.2206 20.1544 31.1808 20.1386 31.1847C20.1478 31.1596 20.1637 31.1191 20.1438 31.1069C20.1469 31.0599 20.1596 31.1083 20.1622 31.0804L20.1584 31.0487C20.1584 31.0487 20.1581 31.0467 20.1579 31.0456C20.1348 31.0502 20.1453 31.0482 20.1579 31.0456C20.1575 31.0441 20.1573 31.0424 20.1573 31.041L20.1593 31.0407L20.1575 31.0166C20.1557 30.9958 20.1564 30.9807 20.159 30.9688C20.1367 30.9462 20.1507 30.9157 20.1334 30.8886C20.1328 30.8385 20.1205 30.8289 20.1266 30.811C20.0926 30.7352 20.0873 30.6131 20.0583 30.5621C20.0421 30.4963 20.0539 30.4647 20.0308 30.4583C20.0317 30.379 19.9917 30.2147 19.9581 30.1498C19.9483 30.0598 19.9031 29.9726 19.8934 29.9142C19.8694 29.902 19.8805 29.9171 19.8606 29.9259C19.8831 29.9828 19.8963 29.9496 19.9054 30.0202C19.8963 30.0113 19.8871 29.9843 19.878 29.9929C19.8889 30.029 19.8997 30.0435 19.9109 30.0368C19.917 30.0592 19.8976 30.0748 19.9215 30.0698C19.9268 30.0894 19.9158 30.087 19.9101 30.0916C19.918 30.1098 19.9326 30.1306 19.9263 30.1047C19.9498 30.1154 19.9302 30.1395 19.9357 30.1563C19.9452 30.16 19.9449 30.1856 19.9398 30.1914L19.9707 30.2372C19.9628 30.3141 19.9933 30.3725 20.0212 30.4967C20.0372 30.5716 20.0222 30.5571 20.0407 30.657C20.0001 30.5804 19.9965 30.4833 19.9574 30.3488C19.9281 30.2582 19.904 30.1738 19.8818 30.1183C19.8393 30.0093 19.8482 29.9906 19.8053 29.9276C19.8097 29.8798 19.7554 29.8005 19.7584 29.7455C19.7847 29.7431 19.8176 29.8794 19.8411 29.8411C19.8466 29.8592 19.8346 29.8561 19.8426 29.8774C19.8586 29.8991 19.8619 29.8747 19.8808 29.8632C19.8548 29.8178 19.8611 29.8753 19.8266 29.7728C19.8148 29.7707 19.8216 29.7893 19.8285 29.8091C19.7761 29.7189 19.7586 29.6535 19.7218 29.5938C19.7453 29.5851 19.7827 29.7104 19.809 29.7612C19.8244 29.7416 19.7675 29.6426 19.7428 29.5839C19.6708 29.4407 19.5786 29.2674 19.4584 29.0985C19.4354 29.1065 19.5139 29.1886 19.534 29.2318C19.5675 29.2842 19.5998 29.3375 19.6301 29.3922C19.5992 29.3759 19.5949 29.3418 19.5561 29.2779C19.5204 29.2204 19.4835 29.1635 19.444 29.1085C19.4018 29.0649 19.4544 29.0888 19.4285 29.0572C19.3011 28.8847 19.2319 28.8177 19.1198 28.6957C19.0962 28.6754 19.1047 28.7275 19.0834 28.6839C19.0335 28.6345 19.0838 28.6787 19.0918 28.6757C19.0412 28.6055 18.9707 28.5642 18.9068 28.4995C18.8673 28.4626 18.8481 28.4607 18.8295 28.4588C18.8299 28.4313 18.7579 28.3785 18.69 28.3313C18.6791 28.3356 18.6944 28.3481 18.7108 28.3609C18.6977 28.3666 18.6412 28.3138 18.6095 28.2966C18.622 28.298 18.6454 28.3141 18.6477 28.3018C18.5674 28.2284 18.5655 28.2892 18.5233 28.2401C18.5404 28.2373 18.5686 28.2648 18.5473 28.2346C18.5087 28.2104 18.4583 28.1725 18.465 28.2035C18.4469 28.1846 18.4638 28.1732 18.3996 28.1443C18.4508 28.1642 18.52 28.205 18.5827 28.2439C18.5761 28.2118 18.5179 28.201 18.4863 28.1688C18.4349 28.1394 18.3663 28.0933 18.3322 28.0864L18.3309 28.0853L18.0589 27.8897L17.9945 28.0436L18.2064 28.1381L18.3102 28.1224L18.3126 28.1219C18.3255 28.1492 18.359 28.1482 18.379 28.1795C18.5542 28.2737 18.7181 28.3913 18.9568 28.5968C18.8545 28.5321 18.7502 28.4332 18.6527 28.3833C18.7229 28.4546 18.8208 28.5052 18.8833 28.5786C18.8004 28.5206 18.6916 28.4298 18.5873 28.359C18.4795 28.2848 18.3672 28.2208 18.2843 28.1728L18.2829 28.1721L18.2064 28.1381L17.9381 28.1783L17.9945 28.0436L17.4754 27.8121L17.7167 27.6438L17.6868 27.6223L17.8532 27.5488L18.276 27.2541C18.34 27.2093 18.3956 27.1844 18.4668 27.1429C18.4959 27.126 18.4972 27.1171 18.5282 27.0996C18.6574 27.0255 18.8642 26.8976 19.0362 26.7741C19.0781 26.7438 19.1182 26.7132 19.1452 26.6899L19.1619 26.6754L19.163 26.6744L19.1614 26.6757C19.1549 26.6684 19.1563 26.669 19.1628 26.6743L19.1636 26.6734L19.2076 26.6246C19.2774 26.5457 19.3478 26.4688 19.3994 26.4169C19.4489 26.3757 19.484 26.2979 19.5064 26.3145C19.5234 26.2964 19.5115 26.2945 19.509 26.2873C19.5855 26.2265 19.6055 26.1831 19.6701 26.1476C19.6708 26.12 19.697 26.1183 19.7447 26.0712C19.773 26.0648 19.7971 26.0086 19.8285 26.0047C19.8606 25.977 19.8387 25.9749 19.886 25.9403C20.0604 25.8062 20.0824 25.7732 20.2319 25.6859C20.4612 25.4969 20.6483 25.4045 21.0074 25.2168C21.2326 25.118 21.3598 25.0601 21.5717 24.991C21.6137 24.9789 21.636 24.9685 21.63 24.9592C21.6943 24.9355 21.6896 24.9566 21.739 24.9431C21.7437 24.9314 21.7195 24.9376 21.6939 24.9449C21.6956 24.9298 21.7851 24.9135 21.7791 24.9252C21.8014 24.9133 21.7614 24.9131 21.8596 24.8902C21.9239 24.8659 21.9155 24.8769 21.9635 24.8568C22.098 24.8341 22.1832 24.7996 22.3905 24.7689C22.749 24.6835 23.2412 24.666 23.6862 24.7041C23.7464 24.714 23.7426 24.7005 23.794 24.708C23.9438 24.7227 24.0923 24.7438 24.2395 24.7691C24.2829 24.7795 24.2958 24.7752 24.3246 24.7786C24.5532 24.8261 24.9152 24.9057 25.2753 25.0281L25.3387 25.0496L25.4179 25.0988L25.4499 25.1189L25.496 25.1461C25.528 25.1644 25.5613 25.1825 25.5945 25.2C25.6618 25.2349 25.7299 25.2678 25.7964 25.2974C25.8549 25.3075 25.9069 25.3366 25.9486 25.3412C25.9748 25.3475 25.9753 25.3548 25.9748 25.362C25.9943 25.3654 26.0079 25.3645 26.0101 25.3547C26.0454 25.3854 26.1039 25.3964 26.1709 25.4094C26.167 25.4018 26.1482 25.3891 26.1423 25.3968C26.1263 25.3693 26.1998 25.4106 26.2143 25.4247C26.2539 25.4369 26.2093 25.3959 26.2483 25.4076C26.2786 25.4113 26.2942 25.4168 26.2908 25.4269C26.3108 25.4223 26.3606 25.4338 26.38 25.4277C26.4267 25.4462 26.4615 25.4234 26.4803 25.4482C26.5041 25.4381 26.5602 25.4347 26.5801 25.4511C26.5955 25.4496 26.5896 25.4395 26.6082 25.439C26.6433 25.4323 26.6635 25.4638 26.6635 25.437C26.6938 25.4318 26.6838 25.4466 26.7055 25.4457C26.7735 25.444 26.7676 25.4203 26.8386 25.4159C26.7966 25.4353 26.8305 25.4308 26.8803 25.4193C26.8998 25.4118 26.8798 25.4132 26.8663 25.4166C26.8896 25.4021 26.9969 25.3735 27.0093 25.3842C27.0433 25.3812 27.0553 25.3501 27.0718 25.362C27.0849 25.3422 27.1155 25.3569 27.1044 25.3363C27.1918 25.3179 27.2645 25.2511 27.3371 25.2294C27.3901 25.2 27.3566 25.202 27.4068 25.1699C27.4539 25.1479 27.5352 25.0944 27.5671 25.0896C27.5952 25.0593 27.6794 25.0202 27.7414 25.0033C27.7847 24.9837 27.7627 24.9761 27.8243 24.9544C27.87 24.9324 27.8691 24.9451 27.8745 24.9526C27.916 24.9088 28.0432 24.8687 28.1145 24.8662C28.148 24.8535 28.0923 24.8625 28.1326 24.8483C28.2084 24.8355 28.2288 24.8156 28.3293 24.792L28.3336 24.8088C28.359 24.8015 28.3495 24.794 28.3513 24.7865C28.3816 24.7847 28.3979 24.791 28.4423 24.7822C28.5192 24.7642 28.392 24.774 28.4601 24.7603C28.5595 24.7437 28.6451 24.7213 28.7433 24.7055ZM13.8061 30.4307C13.8111 30.295 13.7617 30.2469 13.7754 30.1041C13.817 30.1227 13.791 30.2432 13.8399 30.2513C13.8185 30.4345 13.8725 30.3934 13.8974 30.5732C13.7952 30.5715 13.884 30.4433 13.8061 30.4307ZM13.98 27.8037C13.9862 27.8311 13.987 27.8921 13.9541 27.8909C14.0021 27.9479 13.9258 27.9722 13.9807 28.0237C13.965 28.0644 13.9187 28.0178 13.9056 28.0661C13.8875 28.167 14.003 28.0088 13.9499 28.1401L13.8504 28.1147C13.8879 27.9652 13.9202 27.9532 13.9318 27.8209C13.9664 27.8176 13.9765 27.7345 14.0281 27.7866C14.0191 27.8145 13.9973 27.8018 13.98 27.8037ZM14.1741 27.3583C14.15 27.3794 14.1228 27.3882 14.095 27.3938C14.0882 27.4394 14.1239 27.3914 14.1529 27.4148L14.1225 27.4999C14.0685 27.4841 14.1003 27.4387 14.045 27.4729C14.0374 27.5143 14.0853 27.5137 14.1128 27.5286C14.0697 27.5501 14.0126 27.6205 13.9955 27.5528C14.057 27.4583 14.0889 27.2542 14.1631 27.1589C14.2256 27.2248 14.0452 27.2951 14.1741 27.3583ZM14.1363 27.1153C14.1697 27.051 14.2101 27.0216 14.2388 26.9257C14.3179 26.9377 14.1613 27.0599 14.2853 27.0778C14.2436 27.1287 14.1938 27.14 14.1363 27.1153ZM14.3333 26.7673C14.3579 26.7259 14.3868 26.4962 14.4907 26.5394C14.438 26.5386 14.4268 26.8063 14.3333 26.7673ZM20.6068 38.1271C20.601 38.156 20.5657 38.0756 20.5435 38.0424C20.5602 38.0536 20.5849 38.0968 20.6068 38.1271ZM15.3948 24.9388C15.3574 24.9657 15.4073 25.0478 15.3508 25.0227C15.2951 24.966 15.4674 24.7483 15.5276 24.8498C15.4758 24.935 15.4401 24.8998 15.3948 24.9388ZM19.896 31.9041L19.9184 31.7511C19.9293 31.7471 19.9122 31.8666 19.9273 31.8108C19.9326 31.808 19.9316 31.819 19.9302 31.8307L19.9219 31.8884C19.9189 31.8774 19.9153 31.8671 19.9074 31.8666C19.92 31.8877 19.8957 31.9886 19.9024 32.0232C19.878 32.0918 19.9035 31.9423 19.8904 31.9427C19.8954 31.917 19.9195 31.9104 19.896 31.9041ZM19.6187 35.466L19.617 35.4255L19.6138 35.3445C19.6272 35.359 19.6205 35.458 19.6262 35.5063C19.6205 35.5061 19.6206 35.4818 19.6187 35.466ZM19.6401 35.4245C19.6515 35.3659 19.6325 35.3173 19.6401 35.2625C19.6485 35.2722 19.6608 35.4442 19.6401 35.4245ZM19.6678 35.201C19.6797 35.2686 19.6719 35.3147 19.6808 35.4228C19.6668 35.389 19.6575 35.2549 19.6678 35.201ZM19.704 35.8268C19.7048 35.8595 19.7121 35.861 19.7143 35.8868L19.7321 36.0906C19.7311 36.1286 19.7246 36.0788 19.7225 36.0498L19.7135 35.9479C19.6881 35.9058 19.7038 35.8138 19.69 35.7059C19.6951 35.6436 19.7005 35.7932 19.704 35.8268ZM19.7517 29.7298C19.7302 29.6602 19.7207 29.6625 19.6732 29.5609C19.6919 29.5736 19.7712 29.7109 19.7517 29.7298ZM19.6945 29.5123C19.6741 29.5203 19.6704 29.4969 19.6526 29.4573C19.6652 29.4634 19.6792 29.4845 19.6945 29.5123ZM19.2722 28.8781C19.2676 28.8815 19.2551 28.8655 19.2455 28.8565L19.212 28.8185C19.2198 28.8076 19.2538 28.8615 19.2722 28.8781ZM19.571 29.3478C19.6006 29.3922 19.5918 29.4045 19.6241 29.4533L19.6557 29.5131C19.6648 29.5376 19.6506 29.5167 19.6427 29.5008C19.6037 29.4261 19.562 29.353 19.5176 29.2819C19.5035 29.257 19.4859 29.2507 19.4905 29.2395C19.407 29.1155 19.3044 28.9689 19.1746 28.8294C19.2886 28.9201 19.4505 29.145 19.571 29.3478ZM18.3907 28.1595C18.3713 28.1427 18.3473 28.1249 18.357 28.1136C18.3767 28.1305 18.4007 28.1482 18.3907 28.1595ZM19.0264 28.621C19.0221 28.625 19.0081 28.6104 18.9974 28.6023L18.9597 28.5682C18.9663 28.5566 19.0061 28.6067 19.0264 28.621ZM18.9825 28.6676C18.9759 28.6708 18.9568 28.6507 18.9418 28.6382L18.9044 28.605C18.9148 28.5964 18.9588 28.6501 18.9825 28.6676ZM17.9898 23.0485C17.89 23.0331 17.9137 23.0674 17.825 23.1301C17.6279 23.1644 17.5179 23.2885 17.2956 23.379C17.2384 23.3142 17.391 23.3537 17.3057 23.277C17.5366 23.2468 17.7192 23.065 17.9174 22.9699L17.9443 23.0251C17.9942 22.9917 17.9056 22.9392 18.0294 22.9164C18.0803 22.9699 17.9269 22.9936 17.9898 23.0485ZM18.524 22.8162C18.4829 22.8254 18.4814 22.7777 18.4652 22.7512C18.617 22.7451 18.6104 22.6479 18.7261 22.6532C18.7368 22.7353 18.531 22.7858 18.524 22.8162ZM19.8037 22.5226C19.723 22.547 19.6057 22.4856 19.562 22.5553C19.4986 22.574 19.5313 22.4879 19.5079 22.4628C19.5434 22.475 19.5781 22.4879 19.6121 22.5014C19.6986 22.4682 19.5735 22.4653 19.5934 22.4215C19.6644 22.3972 19.667 22.4429 19.7486 22.4085C19.7706 22.4869 19.701 22.4116 19.6671 22.4681C19.701 22.5224 19.81 22.4705 19.8214 22.4563C19.9103 22.4505 19.7817 22.4966 19.8037 22.5226ZM20.6077 22.3397C20.578 22.343 20.5864 22.3668 20.5813 22.3833C20.4866 22.3792 20.5213 22.3747 20.4301 22.4002C20.4908 22.2857 20.3572 22.3838 20.3011 22.3546C20.3551 22.2703 20.4813 22.3329 20.6342 22.2959L20.6437 22.398C20.6079 22.398 20.6146 22.3632 20.6077 22.3397ZM21.9173 22.3636C21.8876 22.3623 21.8921 22.3872 21.8842 22.4025C21.8326 22.3998 21.8069 22.3827 21.7959 22.3561C21.7435 22.3597 21.8312 22.4287 21.7021 22.413C21.7085 22.3966 21.7334 22.394 21.7341 22.3735C21.6829 22.3636 21.6763 22.387 21.672 22.4117C21.603 22.344 21.5884 22.4243 21.4301 22.3855C21.435 22.3617 21.4241 22.3491 21.4016 22.3442C21.455 22.3157 21.5512 22.2964 21.6358 22.2967C21.7221 22.2963 21.8061 22.3155 21.8567 22.3595C21.8964 22.3652 21.9747 22.2986 21.9796 22.3477C21.9768 22.4001 21.955 22.3707 21.9173 22.3636ZM19.3469 26.8679C19.3623 26.8846 19.3771 26.9005 19.3469 26.8679V26.8679ZM19.3376 26.8571L19.2746 26.7844C19.2569 26.763 19.2206 26.7273 19.1929 26.7013C19.2668 26.7815 19.3126 26.8308 19.3372 26.8575C19.3293 26.8489 19.3262 26.8453 19.3374 26.8574L19.3376 26.8571ZM18.0186 36.8172C18.0898 36.841 18.1812 36.8954 18.2066 36.8385C18.0062 36.7774 17.8993 36.7079 17.7362 36.648C17.8404 36.5753 17.5934 36.5211 17.6839 36.6194C17.6975 36.6086 17.7044 36.5844 17.7298 36.5978L17.6901 36.6694C17.7056 36.7326 17.7929 36.6797 17.7497 36.7486C17.8548 36.8029 17.9332 36.8035 18.0186 36.8172ZM23.7428 37.9684C23.6991 37.9788 23.6258 38.041 23.5893 38.0452C23.5316 38.0951 23.4784 38.1405 23.4286 38.1842C23.7471 38.0817 24.0267 37.9663 24.299 37.8373C24.4871 37.7479 24.6741 37.6509 24.869 37.5439C24.675 37.5799 24.4756 37.6408 24.318 37.6914C24.1127 37.7674 23.9443 37.8254 23.7428 37.9684ZM18.3396 37.2105C18.4885 37.2267 18.527 37.3128 18.6981 37.3067C18.5305 37.2088 18.3316 37.1504 18.1757 37.0499C18.1063 37.1603 18.2628 37.1263 18.3396 37.2105ZM18.1099 36.9746C18.2488 37.06 18.4351 37.0852 18.4996 37.143C18.5052 37.0731 18.3464 37.0365 18.3088 36.9743C18.187 36.9176 18.0745 36.8702 17.9913 36.8724C18.0303 36.8955 18.0947 36.9141 18.0915 36.9431C18.0761 36.9359 18.053 36.9434 18.0826 36.9617C18.0982 36.9437 18.1264 36.9473 18.1547 36.95C18.1463 36.9688 18.1221 36.9621 18.1099 36.9746Z" fill="white"/>
<path d="M32.9209 32.7284C32.8867 32.4068 32.838 32.1134 32.8102 31.8192C32.7798 31.5267 32.7565 31.2389 32.7606 30.9582C32.7604 30.8177 32.7663 30.6789 32.781 30.5436L32.7937 30.4427C32.7991 30.4055 32.8009 30.385 32.809 30.3428L32.8158 30.3001C32.8172 30.2875 32.8204 30.2748 32.8228 30.2618C32.8281 30.236 32.8357 30.2095 32.8439 30.1826C32.9138 29.9662 33.073 29.7308 33.2647 29.5169C33.456 29.2996 33.6804 29.0952 33.9169 28.9004C34.1204 28.7323 34.3352 28.5724 34.5562 28.4162L34.5469 28.4024L34.5394 28.4057L34.495 28.425C33.9296 28.6537 33.3797 28.9586 32.9634 29.3271C32.7579 29.5102 32.5919 29.7194 32.5292 29.9055C32.4392 30.1769 32.388 30.4762 32.3583 30.8006C32.3549 30.8723 32.3531 30.9448 32.3522 31.0177C32.3445 31.3599 32.3574 31.7142 32.3798 32.0827C32.3898 32.2697 32.4056 32.4511 32.4056 32.6728C32.4041 32.7959 32.3934 32.8966 32.3816 33.0003C32.3697 33.1025 32.3549 33.2025 32.3384 33.3016C32.2297 33.7408 32.0604 34.215 31.8461 34.6113C31.8347 34.5807 31.9171 34.4403 31.9171 34.3922C31.7863 34.6564 31.6704 34.8794 31.5142 35.1158C31.4857 35.1695 31.5368 35.1154 31.5389 35.1314C31.3732 35.3931 31.2724 35.5429 31.0775 35.7749C30.7452 36.1361 30.3561 36.4622 29.9554 36.7272C29.8988 36.773 29.8993 36.7652 29.8594 36.8067C29.7829 36.8588 29.7066 36.9065 29.6308 36.9514L29.5706 36.9866L29.5172 37.0165C29.4769 37.0379 29.4323 37.0619 29.3933 37.0803C29.2337 37.1589 29.0744 37.2209 28.9137 37.275C28.8412 37.301 28.7683 37.3261 28.695 37.3486C28.4664 37.4128 28.2561 37.4515 28.0086 37.4968C27.751 37.5303 27.6537 37.5467 27.3619 37.5725C27.2021 37.5825 27.0626 37.5814 26.8985 37.5852C26.7 37.5732 26.4904 37.5737 26.3174 37.5553C26.0071 37.5475 25.7406 37.5216 25.4396 37.4807C25.4189 37.4805 25.3897 37.4808 25.3637 37.4822C25.3314 37.4836 25.2981 37.4861 25.2643 37.4893C25.1894 37.4901 25.0955 37.5029 24.9993 37.5224C24.7684 37.5495 24.5112 37.6294 24.3181 37.6914C24.2608 37.7126 24.2065 37.7324 24.1535 37.753C24.0245 37.8455 23.9014 37.9458 23.79 38.0572C23.5319 38.3138 23.3314 38.6177 23.1973 38.9372C23.0633 39.2576 22.9927 39.592 22.9773 39.9223C23.1231 39.625 23.2893 39.3482 23.4912 39.1129C23.6906 38.8762 23.9217 38.6813 24.1726 38.5338C24.2971 38.4589 24.4279 38.3976 24.5617 38.3463C24.6946 38.2936 24.8317 38.2526 24.9707 38.2226C25.1097 38.193 25.2496 38.1699 25.3895 38.1594C25.4595 38.1543 25.5294 38.1513 25.5976 38.1515L25.6978 38.1537L25.7451 38.1562L25.7667 38.1579C25.7716 38.1586 25.7834 38.1595 25.7775 38.1602L25.7191 38.1555C25.8142 38.1741 25.8896 38.1875 25.9736 38.2014C26.0555 38.2148 26.1374 38.2272 26.2192 38.2385C26.3824 38.2619 26.5463 38.2765 26.7109 38.2894C27.04 38.3149 27.3723 38.3237 27.708 38.3076C27.876 38.3002 28.0448 38.2881 28.2146 38.2695C28.3842 38.2498 28.5546 38.2222 28.7258 38.1883C29.0678 38.1202 29.4137 38.0209 29.753 37.8665C29.8379 37.8287 29.9208 37.7874 30.0141 37.7375L30.065 37.7094L30.1275 37.6737L30.2397 37.607C30.3896 37.5176 30.534 37.4186 30.6746 37.3139C30.9553 37.1042 31.2226 36.8725 31.4626 36.6137C31.7019 36.3547 31.918 36.0744 32.1077 35.7779C32.2954 35.4802 32.4527 35.165 32.5836 34.8406C32.7146 34.5157 32.8091 34.1784 32.8769 33.8317C32.9105 33.657 32.9354 33.4831 32.9455 33.2897L32.9487 33.2138L32.9498 33.1313C32.9494 33.0779 32.9471 33.0299 32.944 32.9841C32.9381 32.8928 32.9297 32.8094 32.9209 32.7284ZM22.4318 26.6369C22.0795 26.548 21.7214 26.7608 21.6319 27.1119C21.5433 27.463 21.7565 27.8198 22.1087 27.9084C22.4616 27.9972 22.8198 27.7845 22.9083 27.4331C22.9979 27.0822 22.784 26.7256 22.4318 26.6369ZM27.1339 35.6419C27.4155 35.6741 27.7067 35.6476 27.9846 35.5734C28.5438 35.4228 29.0339 35.0863 29.4228 34.6864C29.8219 34.2828 30.1202 33.7635 30.242 33.2079C30.3027 32.9304 30.3223 32.6454 30.292 32.3669C30.2759 32.2276 30.2497 32.0899 30.2053 31.9574C30.1591 31.8281 30.1068 31.69 30.0009 31.5982C30.0294 31.6594 30.0387 31.7239 30.0448 31.7886C30.0518 31.8528 30.0537 31.9174 30.0523 31.9818C30.0489 32.1103 30.0373 32.2374 30.0174 32.3624C29.9785 32.6124 29.9113 32.8538 29.8209 33.0828C29.6408 33.542 29.3655 33.9483 29.0221 34.2986C28.6746 34.6552 28.2871 34.9627 27.8407 35.1616C27.6177 35.2613 27.3807 35.3327 27.1312 35.3697C26.8822 35.4061 26.6214 35.4122 26.3548 35.3662C26.4648 35.4476 26.5924 35.5045 26.7233 35.5502C26.855 35.5964 26.9931 35.6251 27.1339 35.6419ZM35.3965 35.3172C35.3462 35.1527 35.7229 35.0495 35.9855 34.7207C36.1838 34.4723 34.2053 35.5343 33.1622 35.0875C33.0218 35.027 32.996 35.1832 33.1846 35.4025C33.8046 36.1272 35.3639 36.3091 36.3701 35.9521C37.2436 35.642 35.4472 35.4817 35.3965 35.3172ZM28.7217 38.6578C28.6484 38.5247 28.5325 38.6319 28.5453 38.9202C28.5736 39.5662 29.8814 41.0281 30.7185 41.3045C31.5998 41.5949 30.2809 40.3683 30.343 40.2076C30.4045 40.0471 30.7654 40.1969 31.1755 40.0976C31.4852 40.0231 29.2695 39.6492 28.7217 38.6578Z" fill="white"/>
<path d="M82.8259 16.0505C76.2947 16.0505 72.7997 19.6734 72.7997 25.1955C72.7997 26.3211 72.9409 27.552 73.8941 29.6271C74.353 30.6471 74.9885 31.5968 75.7652 32.4762C77.3539 34.1642 80.4607 35.8174 84.3794 36.3451C85.1561 36.3451 85.5444 36.6617 85.5444 37.2948C85.5444 37.8927 85.262 38.2093 84.6618 38.2093C79.7546 38.2093 75.059 36.5911 71.9877 34.3052C68.9162 31.9484 67.0098 28.8533 67.0098 25.8989C67.0098 21.6077 68.2807 18.2663 70.7873 15.8746C73.2938 13.4477 76.4713 12.252 80.2488 12.252C81.3432 12.252 82.5789 12.3927 84.0264 12.6387C85.4738 12.885 86.1798 13.2366 86.1798 13.6236C86.1798 14.2215 85.6149 15.0656 84.5205 16.1561L82.8259 16.0505Z" fill="white"/>
<path d="M104.679 32.4057C104.785 34.4458 104.821 35.6416 104.821 35.958C104.821 37.8222 104.503 38.3497 103.338 38.3497C103.091 38.3497 102.914 38.3497 102.773 38.3148L100.937 38.1388C100.408 38.1037 100.125 37.8222 100.125 37.2947V35.8527C100.161 35.1842 100.161 34.7271 100.161 34.4104C100.161 31.0341 99.9488 28.2553 99.525 26.0395C99.1367 23.8235 98.5364 22.7331 97.7952 22.7331C95.6769 22.7331 94.7943 24.5973 93.9823 27.9387L92.0053 36.1339L91.617 37.8574C91.511 38.1388 91.264 38.2796 90.9108 38.2796C90.7697 38.2796 90.2754 38.2442 89.993 38.2442H89.6753C89.0751 38.2442 88.7927 37.9629 88.828 37.3651L88.8986 35.0435L88.2984 12.6386C88.2631 12.1111 88.5455 11.7241 88.9691 11.7241C91.0521 11.7241 92.4643 15.4174 93.1703 22.7685C94.1942 21.0802 96.2064 20.236 99.1367 20.236C100.655 20.236 101.961 20.8339 102.985 22.0298C104.044 23.2256 104.574 24.738 104.574 26.5318C104.574 28.396 104.609 30.3304 104.679 32.4057Z" fill="white"/>
<path d="M107.327 15.558C107.327 15.1008 107.644 14.4677 108.315 13.7292C108.986 12.9905 109.727 12.6038 110.504 12.6038C112.234 12.6038 113.717 14.1511 113.717 15.9802C113.717 17.3518 112.41 18.6181 111.034 18.6181C110.928 18.6181 110.751 18.583 110.504 18.5478C108.386 18.0203 107.327 17.0354 107.327 15.558ZM108.986 20.658L112.41 20.3416H112.552C113.046 20.3416 113.293 20.5879 113.293 21.1154C113.293 21.5022 113.258 22.3464 113.222 23.6479C113.187 24.9492 113.187 26.0748 113.187 27.0242C113.187 27.8334 113.222 29.3456 113.258 31.5616C113.328 33.7775 113.364 35.5713 113.364 36.9781C113.364 37.6466 112.552 37.963 109.163 38.1389C108.492 38.1389 108.174 37.5411 108.174 36.3803C108.174 35.0086 108.174 33.2499 108.209 31.0691C108.245 28.8885 108.28 27.4112 108.28 26.6023C108.28 24.527 108.245 22.8389 108.174 21.5728C108.174 21.0451 108.456 20.7284 108.986 20.658Z" fill="white"/>
<path d="M129.815 14.0457C130.592 12.5333 131.439 11.7595 132.322 11.7595C132.781 11.7595 132.993 12.0407 132.993 12.5683C132.993 14.4325 132.922 17.2816 132.816 21.045C132.711 24.8083 132.64 27.5519 132.64 29.3105C132.605 30.0841 132.64 31.1745 132.675 32.5462C132.711 33.9181 132.746 34.8324 132.746 35.3601C132.746 35.958 132.287 36.4857 131.404 36.9429C129.604 37.8925 127.415 38.2442 125.862 38.2442C123.249 38.2442 120.99 37.5058 119.083 35.9934C117.212 34.4808 116.259 32.476 116.224 30.0492C116.259 23.4015 119.683 19.7788 125.367 19.7788C126.038 19.7788 126.956 19.849 128.05 20.0249C128.439 17.5628 129.039 15.5579 129.815 14.0457ZM127.98 22.065C125.473 22.2409 123.743 22.7684 122.79 23.6478C121.872 24.5269 121.413 26.1802 121.413 28.6071C121.413 31.9483 123.002 34.0236 126.497 34.0236C126.956 34.0236 127.45 33.9884 127.98 33.9181L127.98 22.065Z" fill="white"/>
<path d="M152.728 24.1049C153.893 25.3361 154.387 27.0596 154.387 29.4513C154.387 32.265 153.54 34.4808 151.81 36.0987C150.115 37.6815 147.856 38.4904 145.067 38.4904C139.1 38.4904 135.535 34.8678 135.535 28.7125C135.535 22.6981 139.524 19.4622 147.502 19.0752H147.609C148.032 19.0752 148.244 19.3566 148.844 21.432C150.68 22.3111 151.598 22.874 152.728 24.1049ZM149.586 29.3105C149.586 26.8485 148.95 24.7028 147.679 22.874H147.15C145.137 22.874 143.549 23.4367 142.384 24.5623C141.218 25.6525 140.618 26.989 140.618 28.5365C140.618 30.6822 141.007 32.476 141.783 33.8829C142.595 35.2897 143.584 35.9934 144.819 35.9934C148.173 35.9934 149.586 34.0588 149.586 29.3105Z" fill="white"/>
<path d="M167.944 21.2209C167.944 21.3966 167.802 21.6429 167.555 21.9243C165.755 23.8938 164.06 24.8435 161.377 25.2657V26.8133C161.377 28.9939 161.448 32.2298 161.554 36.5209C161.554 37.1891 161.306 37.6465 160.812 37.8926C160.318 38.1037 159.153 38.2092 157.317 38.2092C156.682 38.2092 156.364 37.6111 156.364 36.4506C156.364 35.0789 156.364 33.2851 156.399 31.1042C156.434 28.8884 156.47 27.4112 156.47 26.6022C156.505 25.7932 156.47 24.8084 156.434 23.6478C156.399 22.487 156.364 21.7836 156.364 21.5727C156.364 21.045 156.646 20.7283 157.176 20.658L160.6 20.3416H160.742C161.236 20.3416 161.483 20.5878 161.483 21.1153C161.483 21.3966 161.483 21.6077 161.448 21.7484C163.319 21.7132 165.19 21.5021 167.026 21.1153C167.343 21.0801 167.555 21.045 167.661 21.045C167.838 21.045 167.908 21.0801 167.944 21.1505V21.2209Z" fill="white"/>
<path d="M169.567 15.558C169.567 15.1008 169.885 14.4677 170.556 13.7292C171.227 12.9905 171.968 12.6038 172.745 12.6038C174.475 12.6038 175.957 14.1511 175.957 15.9802C175.957 17.3518 174.651 18.6181 173.274 18.6181C173.168 18.6181 172.992 18.583 172.745 18.5478C170.626 18.0203 169.567 17.0354 169.567 15.558ZM171.227 20.658L174.651 20.3416H174.792C175.287 20.3416 175.534 20.5879 175.534 21.1154C175.534 21.5022 175.498 22.3464 175.463 23.6479C175.428 24.9492 175.428 26.0748 175.428 27.0242C175.428 27.8334 175.463 29.3456 175.498 31.5616C175.569 33.7775 175.604 35.5713 175.604 36.9781C175.604 37.6466 174.792 37.963 171.403 38.1389C170.732 38.1389 170.414 37.5411 170.414 36.3803C170.414 35.0086 170.414 33.2499 170.45 31.0691C170.485 28.8885 170.52 27.4112 170.52 26.6023C170.52 24.527 170.485 22.8389 170.414 21.5728C170.414 21.0451 170.697 20.7284 171.227 20.658Z" fill="white"/>
<path d="M45.9942 45.9573C46.0723 45.9573 46.2582 45.9535 46.5518 45.946C46.8454 45.9388 47.0274 45.9349 47.098 45.9349C47.2988 45.9349 47.4494 45.9664 47.5496 46.0293C47.6499 46.0886 47.7002 46.1481 47.7002 46.207C47.7002 46.2404 47.6966 46.2665 47.6891 46.2849C47.6667 46.3442 47.6257 46.3802 47.5664 46.3932C47.5068 46.4063 47.3267 46.4202 47.0258 46.4349C46.8843 46.4423 46.7691 46.4479 46.6799 46.4515C46.6095 46.4551 46.5147 46.457 46.3956 46.457C46.325 46.457 46.246 46.4563 46.1588 46.4542C46.0714 46.4524 46.0167 46.4515 45.9942 46.4515C45.9646 46.4515 45.9404 46.4524 45.9218 46.4542C45.903 46.4563 45.8856 46.4609 45.8688 46.4682C45.8521 46.4756 45.8401 46.4831 45.8326 46.4904C45.8251 46.4979 45.8177 46.5108 45.8104 46.5293C45.8027 46.5478 45.798 46.5663 45.7962 46.5848C45.7944 46.6033 45.7935 46.6313 45.7935 46.6681V46.7709C45.7935 46.8023 45.7925 46.8468 45.7907 46.9043C45.7889 46.9615 45.7878 47.0161 45.7878 47.068L45.7713 47.6345L45.6875 47.7735C45.6468 47.8475 45.6078 47.9512 45.5705 48.0844C45.5334 48.2177 45.5037 48.3121 45.4813 48.3677C45.4962 48.4047 45.4645 48.4427 45.3867 48.4816C45.3086 48.5205 45.2305 48.5399 45.1526 48.5399C45.0892 48.5399 45.0381 48.5205 44.9991 48.4816C44.9602 48.4427 44.9126 48.3641 44.857 48.2454C44.7863 48.1011 44.7408 47.9698 44.7205 47.8511C44.6999 47.7327 44.6897 47.531 44.6897 47.2457V47.068L44.6953 46.4849L44.2883 46.5015C44.1731 46.5015 43.9947 46.5126 43.7532 46.5349C43.5114 46.5571 43.3387 46.5681 43.2348 46.5681C42.9487 46.5681 42.7775 46.5015 42.7218 46.3682C42.7107 46.3424 42.7051 46.3219 42.7051 46.3072C42.7051 46.2812 42.7153 46.2637 42.7359 46.2544C42.7562 46.2452 42.7895 46.2368 42.8361 46.2294C42.8826 46.2219 42.9206 46.2128 42.9505 46.2015C43.2031 46.109 43.6287 46.0479 44.227 46.0183L44.751 45.9906L44.7399 45.7572C44.7363 45.7203 44.7325 45.6415 44.7288 45.5212C44.725 45.401 44.7184 45.3018 44.7091 45.2241C44.6998 45.1464 44.6879 45.0815 44.6731 45.0297C44.6582 45.0334 44.5409 45.076 44.3218 45.1574C44.1025 45.239 43.9818 45.2815 43.9594 45.2851C43.9741 45.3111 43.8591 45.3371 43.6137 45.3629C43.5282 45.3703 43.4523 45.3741 43.3853 45.3741C43.2404 45.3741 43.1603 45.3556 43.1456 45.3185C43.1044 45.2889 43.0822 45.2694 43.0786 45.2602C43.075 45.2509 43.084 45.2315 43.1064 45.2019C43.6676 44.8502 44.6507 44.4039 46.0556 43.8634C46.1523 43.8226 46.3435 43.8022 46.6299 43.8022C46.9196 43.8022 47.0645 43.8431 47.0645 43.9244C47.0645 43.9615 47.0274 44.0096 46.9532 44.0688C46.9642 44.0688 46.9699 44.0725 46.9699 44.0799C46.9699 44.1022 46.7254 44.1965 46.2369 44.3631C45.7479 44.5298 45.5037 44.6428 45.5037 44.702C45.5037 44.7205 45.5204 44.7352 45.5537 44.7464C45.6171 44.7946 45.6653 44.8502 45.6988 44.913C45.7323 44.9761 45.7527 45.027 45.7602 45.0658C45.7676 45.1047 45.7749 45.1861 45.7824 45.3101C45.7898 45.4343 45.7953 45.5258 45.7991 45.585L45.8159 45.946L45.8994 45.9573L45.9942 45.9573Z" fill="white"/>
<path d="M48.7371 48.4732C48.6443 48.4732 48.5977 48.4195 48.5977 48.312C48.5977 48.2676 48.6078 48.2139 48.6282 48.151C48.6486 48.0881 48.6739 48.0298 48.7034 47.976C48.7332 47.9226 48.7629 47.8715 48.7928 47.8233C48.8224 47.7753 48.8476 47.7382 48.8682 47.7122C48.8885 47.6863 48.9005 47.6753 48.9041 47.6789C49.0379 47.6344 49.1439 47.6123 49.222 47.6123C49.3558 47.6123 49.4228 47.6678 49.4228 47.7789C49.4228 47.9085 49.3447 48.0566 49.1885 48.2232C49.0325 48.3898 48.882 48.4732 48.7371 48.4732ZM49.8855 44.1298C49.9337 43.9781 50.034 43.8355 50.1865 43.7021C50.3387 43.5688 50.4894 43.5022 50.6379 43.5022C50.7681 43.5022 50.8722 43.5577 50.9503 43.6689C50.9576 43.7467 50.9225 43.8105 50.8444 43.8605C50.7661 43.9104 50.6741 43.9568 50.5684 43.9993C50.4625 44.0419 50.3928 44.0872 50.3593 44.1354C50.4002 44.1464 50.4485 44.1521 50.5041 44.1521C50.6008 44.1521 50.8052 44.1243 51.1176 44.0687C51.4298 44.0132 51.6582 43.9854 51.8033 43.9854C52.1415 43.9854 52.3106 44.1095 52.3106 44.3575C52.3106 44.3983 52.3086 44.4317 52.3049 44.4576C52.316 44.5908 52.3217 44.7167 52.3217 44.8352C52.3217 45.2389 52.2436 45.5183 52.0876 45.6738C52.091 45.7221 52.0765 45.7619 52.0428 45.7933C52.0095 45.8248 51.9583 45.8488 51.8895 45.8655C51.821 45.8821 51.7548 45.8943 51.6917 45.9016C51.6283 45.909 51.5495 45.9164 51.4547 45.9238C51.3601 45.9314 51.2903 45.9387 51.2457 45.9459C51.164 45.9572 50.9345 45.973 50.5571 45.9933C50.18 46.0136 49.8927 46.0258 49.6958 46.0292L49.5176 46.035L49.512 46.157C49.5081 46.1682 49.5065 46.1829 49.5065 46.2014C49.5065 46.2459 49.5251 46.2682 49.562 46.2682C49.5844 46.2682 49.6233 46.2571 49.6792 46.2348C49.7349 46.2127 49.7684 46.2014 49.7795 46.2014C49.7721 46.1979 49.7684 46.194 49.7684 46.1904C49.7684 46.157 50.101 46.1404 50.7661 46.1404C51.5169 46.1404 51.8923 46.157 51.8923 46.1904L51.8812 46.2014C51.9258 46.2127 51.9482 46.2645 51.9482 46.3571C51.9482 46.4274 51.9203 46.4625 51.8646 46.4625H51.8422C51.8087 46.5145 51.6444 46.5579 51.349 46.5931C51.0533 46.6284 50.7364 46.6458 50.3984 46.6458C49.9262 46.6458 49.6254 46.6144 49.4952 46.5514C49.4803 46.533 49.4674 46.5237 49.456 46.5237C49.445 46.5237 49.4375 46.5588 49.4339 46.6292C49.4303 46.6995 49.4207 46.7347 49.406 46.7347C49.3986 46.7347 49.3893 46.7477 49.3782 46.7736C49.3668 46.7994 49.3594 46.8245 49.3558 46.8485C49.3521 46.8726 49.354 46.8866 49.3612 46.8902H49.4506C49.6215 46.8902 50.0435 46.8726 50.716 46.8374C51.3888 46.8022 51.8905 46.7846 52.2214 46.7846C52.5671 46.7846 52.8269 46.7994 53.0017 46.8291C53.1651 46.8589 53.2471 46.957 53.2471 47.1235C53.2471 47.2087 53.2165 47.3643 53.1549 47.59C53.0938 47.816 53.0649 47.9787 53.0687 48.0788C53.0537 48.127 53.0415 48.2121 53.0325 48.3343C53.023 48.4564 53.0008 48.5481 52.9655 48.6092C52.9302 48.6703 52.8643 48.7009 52.7676 48.7009C52.7377 48.7009 52.7156 48.6989 52.7006 48.6953H52.6617C52.5501 48.6953 52.4416 48.6481 52.3357 48.5537C52.2298 48.4592 52.1245 48.4119 52.0206 48.4119H51.8701C51.7659 48.4119 51.6795 48.3972 51.6109 48.3676C51.542 48.338 51.48 48.2732 51.4241 48.1732C51.32 48.0881 51.2682 47.9787 51.2682 47.8455C51.2682 47.7641 51.2921 47.6974 51.3406 47.6456C51.4074 47.6198 51.4744 47.6067 51.5411 47.6067C51.6713 47.6067 51.7698 47.665 51.8365 47.7817C51.9036 47.8982 51.9407 48.04 51.9482 48.2066C51.9778 48.188 52.0188 48.1787 52.0706 48.1787C52.1005 48.1787 52.146 48.1835 52.2073 48.1926C52.2687 48.202 52.3106 48.2066 52.3328 48.2066C52.4034 48.2066 52.4387 48.1787 52.4387 48.1233C52.4387 48.1047 52.4367 48.0881 52.4333 48.0733C52.474 47.6067 52.4944 47.3679 52.4944 47.3568C52.3531 47.3198 52.1376 47.3012 51.8477 47.3012C51.6546 47.3012 51.3367 47.3143 50.8944 47.3401C50.4521 47.3659 50.1327 47.379 49.9355 47.379C49.6308 47.379 49.3967 47.3568 49.2331 47.3123C49.1699 47.2976 49.1253 47.2707 49.0995 47.2318C49.0732 47.1929 49.0502 47.1402 49.0298 47.0734C49.0092 47.0069 48.9879 46.955 48.9655 46.9181C48.8541 46.7329 48.7982 46.4774 48.7982 46.1515C48.7982 46.096 48.8003 46.0109 48.8039 45.896C48.8075 45.7813 48.8095 45.6942 48.8095 45.635C48.8095 45.4276 48.7649 45.0333 48.6757 44.452C48.6719 44.4335 48.6701 44.4113 48.6701 44.3854C48.6701 44.3631 48.6719 44.3446 48.6757 44.3298C48.6794 44.315 48.6877 44.3019 48.7006 44.2909C48.7138 44.2798 48.724 44.2715 48.7314 44.266C48.7389 44.2603 48.7548 44.2548 48.779 44.2493C48.803 44.2436 48.8224 44.2409 48.8374 44.2409C48.8521 44.2409 48.8774 44.2391 48.9125 44.2354C48.9478 44.2317 48.9748 44.2299 48.9936 44.2299H49.183L49.289 44.3354C49.3447 44.3872 49.3809 44.44 49.3976 44.4936C49.4144 44.5474 49.4302 44.6612 49.445 44.8352C49.4488 44.9129 49.4599 44.9518 49.4785 44.9518C49.4895 44.9518 49.5006 44.9463 49.512 44.9352C49.5898 44.8871 49.9151 44.8629 50.4876 44.8629C50.5248 44.8629 50.587 44.8639 50.6742 44.8657C50.7615 44.8677 50.8294 44.8686 50.8777 44.8686L51.7306 44.8851L51.7195 44.7963C51.7195 44.789 51.7168 44.7694 51.7111 44.738C51.7057 44.7066 51.701 44.6769 51.6973 44.6491C51.6937 44.6213 51.6917 44.5963 51.6917 44.5741L51.6749 44.4409L51.569 44.452C51.0895 44.5224 50.4466 44.5575 49.6403 44.5575C49.5916 44.5575 49.5473 44.5334 49.5065 44.4853C49.4653 44.4373 49.4488 44.3928 49.456 44.352C49.445 44.3372 49.4395 44.3243 49.4395 44.3131C49.4395 44.2687 49.5149 44.2345 49.6652 44.2104C49.8158 44.1862 49.8909 44.1632 49.8909 44.1409L49.8855 44.1354V44.1298ZM51.6917 45.4961C51.7399 45.5257 51.7716 45.5405 51.7865 45.5405C51.8126 45.5405 51.8255 45.5183 51.8255 45.474C51.818 45.374 51.7865 45.2721 51.7306 45.1684H51.7252C51.6917 45.1684 51.6349 45.1788 51.5552 45.1991C51.4751 45.2194 51.4185 45.2389 51.3852 45.2573C51.1733 45.2795 50.8369 45.2906 50.376 45.2906C49.8705 45.2906 49.5862 45.2629 49.5231 45.2073H49.5176C49.5065 45.2073 49.5006 45.2444 49.5006 45.3184C49.5006 45.4887 49.5065 45.5739 49.5176 45.5739C49.6514 45.5739 49.9301 45.5573 50.3536 45.5239C50.7774 45.4906 51.0895 45.474 51.2903 45.474C51.4576 45.474 51.5914 45.4814 51.6917 45.4961ZM49.6625 48.2066C49.6514 48.151 49.6458 48.0991 49.6458 48.0511C49.6458 47.9253 49.6781 47.8279 49.7433 47.7594C49.8083 47.6909 49.8945 47.6567 50.0025 47.6567C50.0693 47.6567 50.1438 47.6714 50.2255 47.7011C50.2513 47.7418 50.2646 47.7975 50.2646 47.8678C50.2646 47.9937 50.2264 48.127 50.1501 48.2676C50.074 48.4085 49.9932 48.4954 49.9076 48.5287C49.8966 48.551 49.878 48.562 49.852 48.562C49.8259 48.562 49.7868 48.5471 49.7349 48.5176L49.6625 48.4676V48.2066ZM50.7274 48.4453C50.6828 48.4453 50.6268 48.3824 50.5601 48.2565C50.493 48.1306 50.4596 48.0252 50.4596 47.9399C50.4596 47.8511 50.4885 47.7798 50.546 47.7261C50.6037 47.6725 50.6732 47.6456 50.755 47.6456C50.8369 47.6456 50.9148 47.6714 50.9893 47.7233C51.0153 47.7863 51.0284 47.8659 51.0284 47.9621C51.0284 48.0918 51.004 48.2048 50.9557 48.301C50.9073 48.3972 50.8351 48.4453 50.7384 48.4453H50.7274Z" fill="white"/>
</g>
<defs>
<clipPath id="clip0_4152_204">
<rect width="176" height="50" fill="white"/>
</clipPath>
</defs>
</svg>
